<svg id="Capa_1" enable-background="new 0 0 401.059 401.059" height="512" viewBox="0 0 401.059 401.059" width="512" xmlns="http://www.w3.org/2000/svg"><path id="path-1_7_" d="m0 74.485h28.647v63.015h-28.647z" transform="translate(1 3.6)"/><path id="path-2_7_" d="m0 263.544h28.647v63.029h-28.647z" transform="translate(1 10.2)"/><path d="m28.647 214.853h28.647v-28.647h-28.647v-17.191h-28.647v63.029h28.647z"/><path d="m28.647 28.647h14.324v-28.647h-42.971v42.971h28.647z"/><path d="m263.559 0h63.015v28.647h-63.015z"/><path d="m74.485 0h63.029v28.647h-63.029z"/><path d="m358.088 0v28.647h14.324v14.324h28.647v-42.971z"/><path id="path-1_6_" d="m372.412 263.559h28.647v63.015h-28.647z" transform="translate(14 10.2)"/><path d="m372.412 186.206h-28.647v28.647h28.647v17.191h28.647v-63.029h-28.647z"/><path id="path-2_6_" d="m372.412 74.485h28.647v63.029h-28.647z" transform="translate(14 3.6)"/><path d="m372.412 372.412h-157.559v-28.647h-28.647v28.647h-157.559v-14.324h-28.647v42.971h401.059v-42.971h-28.647z"/><path id="path-3" d="m257.824 186.206h57.294v28.647h-57.294z" transform="translate(10 7.5)"/><path id="path-3_1_" d="m85.941 186.206h57.294v28.647h-57.294z" transform="translate(4 7.5)"/><path d="m186.206 57.294h28.647v-28.647h17.191v-28.647h-63.029v28.647h17.191z"/><path d="m214.853 214.853h14.324v-28.647h-14.324v-14.324h-28.647v14.324h-14.324v28.647h14.324v14.324h28.647z"/><path id="path-4" d="m186.206 85.941h28.647v57.294h-28.647z" transform="translate(7.5 4)"/><path id="path-4_1_" d="m186.206 257.824h28.647v57.294h-28.647z" transform="translate(7.5 10)"/></svg>